<?xml version="1.0" standalone="no"?>
<!DOCTYPE svg PUBLIC "-//W3C//DTD SVG 20010904//EN"
 "http://www.w3.org/TR/2001/REC-SVG-20010904/DTD/svg10.dtd">
<svg version="1.0" xmlns="http://www.w3.org/2000/svg"
 width="855.000000pt" height="855.000000pt" viewBox="0 0 855.000000 855.000000"
 preserveAspectRatio="xMidYMid meet">

<g transform="translate(0.000000,855.000000) scale(0.100000,-0.100000)"
fill="#000000" stroke="none">
<path d="M4130 6295 c0 -414 -3 -441 -44 -450 -12 -3 -59 -6 -106 -7 l-85 -3
-3 -54 -3 -53 128 3 c149 5 173 14 204 82 17 39 19 71 19 460 l0 417 -55 0
-55 0 0 -395z"/>
<path d="M4440 6350 l0 -50 50 0 50 0 0 50 0 50 -50 0 -50 0 0 -50z"/>
<path d="M4580 6350 l0 -50 50 0 50 0 0 50 0 50 -50 0 -50 0 0 -50z"/>
<path d="M4440 6210 l0 -50 50 0 50 0 0 50 0 50 -50 0 -50 0 0 -50z"/>
<path d="M4580 6210 l0 -50 50 0 50 0 0 50 0 50 -50 0 -50 0 0 -50z"/>
<path d="M5043 6230 c-93 -22 -122 -78 -123 -236 0 -121 -7 -140 -55 -152 -28
-8 -30 -12 -33 -61 l-3 -54 56 5 c63 5 100 27 129 77 15 26 20 61 25 164 6
127 7 132 31 144 18 9 96 13 287 13 259 0 262 0 277 22 21 30 20 44 -4 68 -19
19 -33 20 -287 19 -148 -1 -283 -4 -300 -9z"/>
<path d="M3024 6089 c-43 -12 -100 -78 -115 -131 -22 -83 25 -181 102 -212 34
-14 98 -16 450 -16 l410 0 -3 53 -3 52 -408 5 -409 5 -19 24 c-26 32 -24 67 6
96 l24 25 390 0 c214 0 396 3 405 6 10 4 16 18 16 39 0 70 30 65 -414 64 -220
0 -415 -5 -432 -10z"/>
<path d="M4340 5833 c-21 -8 -30 -24 -30 -53 0 -48 8 -50 257 -50 l233 0 0 55
0 55 -222 -1 c-123 0 -230 -3 -238 -6z"/>
<path d="M2810 4725 c0 -37 4 -65 10 -65 6 0 10 28 10 65 0 37 -4 65 -10 65
-6 0 -10 -28 -10 -65z"/>
<path d="M3213 4765 c-6 -14 -7 -25 -2 -25 5 0 10 -19 11 -42 l1 -43 4 40 c3
22 10 43 16 47 9 6 9 10 1 16 -6 4 -13 12 -15 19 -2 7 -9 1 -16 -12z"/>
<path d="M3805 4780 c3 -5 8 -10 11 -10 2 0 4 5 4 10 0 6 -5 10 -11 10 -5 0
-7 -4 -4 -10z"/>
<path d="M4560 4726 l0 -66 45 0 c48 0 65 16 65 62 0 38 -22 59 -68 65 l-42 6
0 -67z m86 19 c15 -23 15 -27 0 -50 -11 -17 -26 -25 -46 -25 -29 0 -30 1 -30
50 0 49 1 50 30 50 20 0 35 -8 46 -25z"/>
<path d="M5245 4780 c3 -5 8 -10 11 -10 2 0 4 5 4 10 0 6 -5 10 -11 10 -5 0
-7 -4 -4 -10z"/>
<path d="M2998 4753 c-14 -3 -18 -14 -17 -51 l2 -47 6 40 c5 34 10 40 31 40
21 0 26 -6 31 -40 l6 -40 2 41 c2 55 -14 70 -61 57z"/>
<path d="M3406 4744 c-9 -8 -16 -29 -16 -45 0 -51 74 -66 88 -18 4 11 2 12 -9
2 -18 -18 -56 -16 -63 2 -4 12 4 15 39 15 51 0 60 18 23 44 -28 20 -43 20 -62
0z m62 -21 c2 -9 -7 -13 -27 -13 -30 0 -39 9 -24 24 11 10 46 3 51 -11z"/>
<path d="M3648 4752 c-14 -3 -18 -13 -17 -50 l1 -47 8 39 c4 21 13 42 21 46
17 11 10 18 -13 12z"/>
<path d="M3980 4740 c-26 -26 -25 -52 0 -75 32 -29 74 -10 78 35 6 55 -40 78
-78 40z m60 -15 c20 -25 8 -50 -25 -50 -31 0 -43 20 -31 51 7 18 40 18 56 -1z"/>
<path d="M4218 4753 c-14 -3 -18 -15 -18 -49 0 -24 5 -44 10 -44 6 0 10 16 10
35 0 22 6 38 15 41 8 4 15 10 15 15 0 9 -4 10 -32 2z"/>
<path d="M4832 4744 c-27 -18 -29 -55 -4 -77 22 -21 42 -21 67 -4 12 10 14 16
7 21 -7 4 -12 2 -12 -4 0 -15 -52 -8 -58 8 -2 8 9 12 37 12 26 0 41 5 41 13
-1 36 -45 54 -78 31z m56 -21 c2 -9 -7 -13 -27 -13 -30 0 -39 9 -24 24 11 10
46 3 51 -11z"/>
<path d="M5062 4748 c-17 -17 -15 -31 8 -46 26 -16 25 -30 -2 -35 -21 -3 -21
-4 -5 -12 13 -5 24 -2 35 8 15 15 14 18 -6 40 -26 28 -28 37 -6 37 8 0 12 5 9
10 -8 13 -18 13 -33 -2z"/>
<path d="M5419 4741 c-20 -16 -22 -23 -13 -47 8 -25 15 -29 47 -29 23 0 37 -5
37 -12 0 -17 -49 -28 -63 -14 -17 17 -31 13 -17 -5 9 -10 26 -14 49 -12 l36 3
3 61 c2 44 -1 61 -10 61 -7 0 -20 4 -29 7 -9 4 -26 -1 -40 -13z m66 -36 c0
-24 -5 -31 -24 -33 -32 -5 -54 23 -40 50 7 13 19 18 37 16 23 -2 27 -8 27 -33z"/>
<path d="M5673 4753 c-20 -4 -23 -10 -22 -51 1 -42 2 -44 8 -16 11 43 19 54
42 54 16 0 19 -7 19 -40 0 -22 5 -40 10 -40 16 0 12 67 -6 84 -8 9 -18 15 -22
15 -4 -1 -17 -4 -29 -6z"/>
<path d="M3813 4705 c0 -27 2 -38 4 -22 2 15 2 37 0 50 -2 12 -4 0 -4 -28z"/>
<path d="M5253 4705 c0 -27 2 -38 4 -22 2 15 2 37 0 50 -2 12 -4 0 -4 -28z"/>
<path d="M0 1535 l0 -1535 4275 0 4275 0 0 1535 0 1535 -4275 0 -4275 0 0
-1535z m4040 705 l0 -180 420 0 c367 0 420 -2 420 -15 0 -13 -53 -15 -420 -15
l-420 0 0 -270 0 -271 68 3 67 3 5 255 5 255 35 0 35 0 3 -240 c3 -257 -3
-305 -42 -330 -12 -8 -57 -18 -99 -21 -76 -7 -77 -7 -77 -35 0 -16 -4 -29 -10
-29 -5 0 -10 13 -10 29 l0 29 -253 4 c-284 3 -295 6 -324 76 -19 45 -6 96 33
133 26 24 26 24 285 27 l259 3 0 189 0 189 -72 3 c-46 2 -73 7 -76 16 -3 9 16
12 72 12 l76 0 0 180 c0 113 4 180 10 180 6 0 10 -67 10 -180z m400 -440 c0
-28 -3 -30 -35 -30 -32 0 -35 2 -35 30 0 28 3 30 35 30 32 0 35 -2 35 -30z
m90 0 c0 -28 -3 -30 -35 -30 -32 0 -35 2 -35 30 0 28 3 30 35 30 32 0 35 -2
35 -30z m-92 -87 c3 -32 2 -33 -32 -33 -33 0 -36 3 -36 28 0 36 8 44 40 40 20
-2 26 -9 28 -35z m90 0 c3 -32 2 -33 -32 -33 -35 0 -36 1 -36 36 0 34 1 35 33
32 28 -3 32 -7 35 -35z m587 -3 c14 -45 -6 -50 -186 -50 -196 0 -189 4 -189
-104 0 -97 -20 -126 -95 -138 -16 -3 -21 -12 -23 -46 -2 -28 -8 -42 -18 -42
-10 0 -14 12 -14 40 l0 40 -134 0 c-109 0 -138 3 -150 16 -20 19 -20 29 0 48
12 13 41 16 149 16 l134 0 3 53 c2 28 8 52 13 52 6 0 11 -24 13 -52 2 -34 8
-53 16 -53 27 0 36 25 36 103 0 73 2 80 29 108 l29 29 191 0 c182 0 190 -1
196 -20z m88 -546 c-8 -21 -43 -18 -43 5 0 11 6 21 13 24 17 6 37 -12 30 -29z
m-746 2 c25 -22 26 -25 10 -31 -11 -5 -25 -1 -38 11 -15 14 -24 16 -37 8 -33
-21 -26 -45 32 -98 65 -61 74 -99 31 -141 -36 -37 -102 -29 -125 15 -18 34 -1
43 32 15 35 -29 37 -30 66 -9 34 24 27 45 -32 99 -65 59 -76 89 -46 128 27 34
69 36 107 3z m133 -16 c0 -33 3 -40 20 -40 11 0 20 -7 20 -15 0 -8 -9 -15 -20
-15 -19 0 -20 -7 -20 -90 0 -73 -3 -90 -15 -90 -12 0 -15 17 -15 89 0 80 -2
89 -20 94 -11 3 -20 10 -20 16 0 6 9 11 20 11 17 0 20 7 20 40 0 29 4 40 15
40 11 0 15 -11 15 -40z m520 -105 c0 -122 -2 -145 -15 -145 -8 0 -15 4 -15 9
0 6 -16 3 -36 -5 -45 -19 -84 -11 -116 24 -33 36 -42 74 -25 114 27 64 88 91
141 63 15 -8 30 -15 32 -15 2 0 4 23 4 50 0 38 4 50 15 50 13 0 15 -23 15
-145z m-1849 120 c68 -36 91 -139 46 -206 -31 -47 -61 -59 -144 -59 l-73 0 0
140 0 140 70 0 c45 0 82 -6 101 -15z m264 -61 c42 -19 69 -73 61 -117 -27
-133 -216 -117 -216 17 0 49 21 83 64 102 40 17 51 17 91 -2z m608 -25 c15
-16 27 -40 27 -54 0 -25 -1 -25 -90 -25 -97 0 -107 -7 -72 -49 29 -35 73 -37
111 -5 37 31 60 21 31 -13 -64 -79 -190 -32 -190 71 0 49 21 83 64 102 42 18
85 9 119 -27z m1289 4 c36 -34 44 -79 24 -127 -43 -103 -206 -69 -206 43 0 50
19 83 60 104 44 22 85 16 122 -20z m-1755 -45 l31 -72 34 75 35 74 34 -74 33
-75 33 72 c19 43 38 72 47 72 18 0 17 -1 -33 -116 -20 -44 -40 -82 -44 -85 -5
-2 -21 24 -36 58 -15 35 -30 65 -33 68 -3 3 -18 -26 -34 -65 -16 -38 -32 -70
-35 -70 -6 0 -89 189 -89 203 0 4 6 7 14 7 7 0 27 -32 43 -72z m1025 -3 c4
-77 13 -97 54 -109 14 -4 30 0 45 13 20 16 24 30 27 95 3 56 8 76 18 76 15 0
20 -89 8 -150 -13 -65 -108 -89 -158 -40 -26 26 -38 190 -13 190 12 0 16 -16
19 -75z m508 -30 c0 -87 -3 -105 -15 -105 -12 0 -15 18 -15 105 0 87 3 105 15
105 12 0 15 -18 15 -105z m-900 0 c0 -12 -13 -15 -55 -15 -42 0 -55 3 -55 15
0 12 13 15 55 15 42 0 55 -3 55 -15z m-913 -222 c-2 -16 -4 -5 -4 22 0 28 2
40 4 28 2 -13 2 -35 0 -50z m252 20 c-1 -47 -1 -47 -9 -14 -7 31 -4 61 6 61 2
0 4 -21 3 -47z m873 24 c20 -32 0 -67 -39 -67 -21 0 -23 5 -23 46 0 45 1 46
27 39 15 -3 31 -12 35 -18z m-983 -40 c-2 -30 -2 -31 -6 -4 -2 15 -10 27 -18
27 -8 0 -16 -12 -18 -27 -4 -27 -4 -26 -6 4 -1 23 4 33 17 36 26 6 32 -1 31
-36z m265 17 c4 -10 -3 -14 -25 -14 -19 0 -28 -4 -23 -11 3 -6 15 -9 25 -6 11
3 19 1 19 -5 0 -19 -55 -4 -59 16 -7 38 49 56 63 20z m356 -7 c-1 -39 -43 -48
-64 -14 -9 15 -7 21 8 32 21 16 56 4 56 -18z m520 3 c0 -6 -11 -10 -25 -10
-14 0 -25 -5 -25 -11 0 -7 9 -9 21 -6 15 4 19 3 12 -4 -16 -16 -47 -6 -51 15
-6 27 25 48 49 35 11 -5 19 -14 19 -19z m358 -19 c-3 -31 -7 -36 -32 -39 -23
-3 -27 0 -23 12 3 8 2 18 -3 21 -25 16 9 56 40 48 17 -5 20 -12 18 -42z m141
5 c-2 -30 -2 -30 -6 -3 -6 35 -33 36 -33 1 0 -14 -4 -23 -10 -19 -17 11 -11
53 8 57 30 7 42 -3 41 -36z m-1265 26 c-7 -4 -14 -18 -17 -32 -4 -21 -4 -20
-6 8 -1 24 3 32 17 32 11 0 13 -3 6 -8z m93 -39 c-3 -10 -5 -2 -5 17 0 19 2
27 5 18 2 -10 2 -26 0 -35z m257 39 c-7 -4 -14 -18 -17 -32 -4 -21 -4 -20 -6
8 -1 24 3 32 17 32 11 0 13 -3 6 -8z m518 -1 c-10 -6 -10 -10 2 -21 18 -14 12
-30 -12 -30 -15 0 -15 2 -2 11 11 8 12 12 3 16 -19 7 -15 33 5 33 13 0 14 -2
4 -9z m105 -38 c-3 -10 -5 -2 -5 17 0 19 2 27 5 18 2 -10 2 -26 0 -35z"/>
<path d="M3526 1567 c-12 -9 -17 -23 -14 -42 l3 -30 253 -3 252 -2 0 45 0 45
-238 0 c-180 0 -243 -3 -256 -13z"/>
<path d="M4983 1083 c-50 -9 -70 -90 -34 -134 13 -17 29 -23 56 -23 47 0 75
31 75 84 0 53 -41 83 -97 73z"/>
<path d="M3120 1041 l0 -111 45 0 c70 0 111 21 125 65 16 47 6 96 -25 125 -19
18 -40 25 -85 28 l-60 4 0 -111z"/>
<path d="M3460 1082 c-30 -9 -60 -46 -60 -73 0 -41 9 -58 41 -75 54 -28 113 9
113 71 0 53 -48 91 -94 77z"/>
<path d="M4025 1079 c-12 -6 -26 -19 -33 -30 -12 -18 -9 -19 63 -19 73 0 75 1
65 20 -6 12 -22 25 -36 30 -30 12 -33 12 -59 -1z"/>
<path d="M5323 1079 c-27 -10 -53 -47 -53 -75 0 -36 11 -54 41 -70 54 -28 113
9 113 71 0 56 -50 93 -101 74z"/>
<path d="M4460 800 c0 -32 19 -40 39 -16 15 18 3 46 -20 46 -14 0 -19 -7 -19
-30z"/>
<path d="M3758 803 c7 -3 16 -2 19 1 4 3 -2 6 -13 5 -11 0 -14 -3 -6 -6z"/>
<path d="M4095 800 c-4 -7 -3 -16 3 -22 14 -14 45 -2 40 15 -6 16 -34 21 -43
7z"/>
<path d="M4628 803 c7 -3 16 -2 19 1 4 3 -2 6 -13 5 -11 0 -14 -3 -6 -6z"/>
<path d="M4977 803 c-3 -5 -2 -15 2 -21 9 -15 43 -4 38 12 -5 14 -33 20 -40 9z"/>
<path d="M4988 753 c7 -3 16 -2 19 1 4 3 -2 6 -13 5 -11 0 -14 -3 -6 -6z"/>
</g>
</svg>
